<svg width="220" height="220" viewBox="0 0 220 220" fill="none" xmlns="http://www.w3.org/2000/svg">
<path d="M11 22C11 34.1503 20.8497 44 33 44H55H99H121C145.301 44 165 63.6995 165 88C165 112.301 145.301 132 121 132H99C86.8497 132 77 141.85 77 154C77 166.15 86.8497 176 99 176H121C169.601 176 209 136.601 209 88C209 39.3989 169.601 0 121 0H99H55H33C20.8497 0 11 9.84974 11 22Z" fill="url(#paint0_linear_233_415)"/>
<path d="M55 176V132C55 119.85 64.8497 110 77 110H121C133.15 110 143 100.15 143 88C143 75.8497 133.15 66 121 66H55C30.6995 66 11 85.6995 11 110V132V176V198C11 210.15 20.8497 220 33 220C45.1503 220 55 210.15 55 198V176Z" fill="url(#paint1_linear_233_415)"/>
<defs>
<linearGradient id="paint0_linear_233_415" x1="11" y1="220" x2="209.723" y2="-5.77114" gradientUnits="userSpaceOnUse">
<stop stop-color="#EEEEEE"/>
<stop offset="1" stop-color="white"/>
</linearGradient>
<linearGradient id="paint1_linear_233_415" x1="11" y1="220" x2="209.723" y2="-5.77114" gradientUnits="userSpaceOnUse">
<stop stop-color="#EEEEEE"/>
<stop offset="1" stop-color="white"/>
</linearGradient>
</defs>
</svg>
